<?xml version="1.0" encoding="UTF-8"?><svg id="b" xmlns="http://www.w3.org/2000/svg" xmlns:xlink="http://www.w3.org/1999/xlink" viewBox="0 0 557.37 727.59"><defs><filter id="d" x=".8" y="176.94" width="59" height="70" filterUnits="userSpaceOnUse"><feOffset dx="6.89" dy="6.89"/><feGaussianBlur result="e" stdDeviation="4.92"/><feFlood flood-color="#000" flood-opacity=".21"/><feComposite in2="e" operator="in"/><feComposite in="SourceGraphic"/></filter><filter id="f" x=".8" y="220.94" width="59" height="71" filterUnits="userSpaceOnUse"><feOffset dx="6.89" dy="6.89"/><feGaussianBlur result="g" stdDeviation="4.92"/><feFlood flood-color="#000" flood-opacity=".21"/><feComposite in2="g" operator="in"/><feComposite in="SourceGraphic"/></filter><filter id="h" x=".8" y="265.94" width="59" height="71" filterUnits="userSpaceOnUse"><feOffset dx="6.89" dy="6.89"/><feGaussianBlur result="i" stdDeviation="4.92"/><feFlood flood-color="#000" flood-opacity=".21"/><feComposite in2="i" operator="in"/><feComposite in="SourceGraphic"/></filter><linearGradient id="j" x1="296.37" y1="148.19" x2="347.89" y2="148.19" gradientUnits="userSpaceOnUse"><stop offset="0" stop-color="#0070e0"/><stop offset="1" stop-color="#00a5ff"/></linearGradient></defs><g id="c"><polygon points="481.64 295.39 79.72 63.33 68.79 69.64 470.71 301.7 481.64 295.39" style="fill:#5d7280;"/><polygon points="481.64 612.45 481.64 295.38 470.71 301.69 470.71 618.76 481.64 612.45" style="fill:#2c353b;"/><polygon points="470.71 618.76 68.79 386.71 68.79 69.63 470.71 301.69 470.71 618.76" style="fill:#3b4951;"/><polygon points="459.35 305.85 459.35 601.49 80.18 382.58 80.18 86.94 459.35 305.85" style="fill:#22af80;"/><polygon points="152.2 424.13 80.15 382.53 80.15 86.93 152.2 128.53 152.2 424.13" style="fill:#008b62;"/><path d="M104.27,120.31c0,6.1-4.28,8.57-9.56,5.52-5.28-3.05-9.56-10.46-9.56-16.56s4.28-8.57,9.56-5.52c5.28,3.05,9.56,10.46,9.56,16.56Z" style="fill:#d7daff;"/><polygon points="139.94 137.52 111.34 121.01 111.34 115.56 139.94 132.07 139.94 137.52" style="fill:#3b4951;"/><polygon points="130.37 144.22 111.34 133.24 111.34 127.78 130.37 138.77 130.37 144.22" style="fill:#3b4951;"/><path d="M138.24,188.91l-46.97-27.12c-3.38-1.95-6.12-7.19-6.12-11.7h0c0-4.51,2.74-6.58,6.12-4.63l46.97,27.12c3.38,1.95,6.12,7.19,6.12,11.7h0c0,4.51-2.74,6.58-6.12,4.63Z" style="fill:#22af80;"/><path d="M138.24,212.2l-46.97-27.12c-3.38-1.95-6.12-7.19-6.12-11.7h0c0-4.51,2.74-6.58,6.12-4.63l46.97,27.12c3.38,1.95,6.12,7.19,6.12,11.7h0c0,4.51-2.74,6.58-6.12,4.63Z" style="fill:#22af80;"/><path d="M138.24,235.5l-46.97-27.12c-3.38-1.95-6.12-7.19-6.12-11.7h0c0-4.51,2.74-6.58,6.12-4.63l46.97,27.12c3.38,1.95,6.12,7.19,6.12,11.7h0c0,4.51-2.74,6.58-6.12,4.63Z" style="fill:#22af80;"/><path d="M138.24,258.8l-46.97-27.12c-3.38-1.95-6.12-7.19-6.12-11.7h0c0-4.51,2.74-6.58,6.12-4.63l46.97,27.12c3.38,1.95,6.12,7.19,6.12,11.7h0c0,4.51-2.74,6.58-6.12,4.63Z" style="fill:#22af80;"/><path d="M138.24,282.09l-46.97-27.12c-3.38-1.95-6.12-7.19-6.12-11.7h0c0-4.51,2.74-6.58,6.12-4.63l46.97,27.12c3.38,1.95,6.12,7.19,6.12,11.7h0c0,4.51-2.74,6.58-6.12,4.63Z" style="fill:#22af80;"/><path d="M138.24,305.39l-46.97-27.12c-3.38-1.95-6.12-7.19-6.12-11.7h0c0-4.51,2.74-6.58,6.12-4.63l46.97,27.12c3.38,1.95,6.12,7.19,6.12,11.7h0c0,4.51-2.74,6.58-6.12,4.63Z" style="fill:#22af80;"/><polygon points="136.27 399 95.48 375.45 95.48 367.02 136.27 390.58 136.27 399" style="fill:#d7daff;"/><polygon points="248.46 299.69 168.12 253.31 168.12 160.54 248.46 206.93 248.46 299.69" style="fill:#d1d1d1;"/><polygon points="344 354.85 263.67 308.47 263.67 215.71 344 262.09 344 354.85" style="fill:#fff;"/><polygon points="439.55 410.01 359.21 363.63 359.21 270.87 439.55 317.25 439.55 410.01" style="fill:#d1d1d1;"/><polygon points="229.32 239.23 187.27 214.95 187.27 205.88 229.32 230.15 229.32 239.23" style="fill:#3b4951;"/><polygon points="221.18 249.66 195.4 234.78 195.4 225.71 221.18 240.59 221.18 249.66" style="fill:#3b4951;"/><path d="M293.31,279.2c0,2.97-2.08,4.17-4.65,2.69-2.57-1.48-4.65-5.09-4.65-8.06s2.08-4.17,4.65-2.69c2.57,1.48,4.65,5.09,4.65,8.06Z" style="fill:#3b4951;"/><path d="M308.49,287.97c0,2.97-2.08,4.17-4.65,2.69s-4.65-5.09-4.65-8.06,2.08-4.17,4.65-2.69,4.65,5.09,4.65,8.06Z" style="fill:#3b4951;"/><path d="M323.66,296.73c0,2.97-2.08,4.17-4.65,2.69-2.57-1.48-4.65-5.09-4.65-8.06s2.08-4.17,4.65-2.69c2.57,1.48,4.65,5.09,4.65,8.06Z" style="fill:#3b4951;"/><polygon points="386.11 349.47 380.23 346.08 380.23 312.7 386.11 316.09 386.11 349.47" style="fill:#3b4951;"/><polygon points="402.32 358.83 396.44 355.43 396.44 322.05 402.32 325.45 402.32 358.83" style="fill:#3b4951;"/><polygon points="418.52 368.19 412.64 364.79 412.64 331.41 418.52 334.8 418.52 368.19" style="fill:#3b4951;"/><polygon points="233.63 330.91 168.12 293.09 168.12 277.96 233.63 315.78 233.63 330.91" style="fill:#3b4951;"/><polygon points="281.22 358.38 248.46 339.47 248.46 324.34 281.22 343.25 281.22 358.38" style="fill:#3b4951;"/><polygon points="439.55 479.35 168.12 322.64 168.12 314.48 439.55 471.18 439.55 479.35" style="fill:#3b4951;"/><polygon points="439.55 496.66 168.12 339.95 168.12 331.79 439.55 488.49 439.55 496.66" style="fill:#3b4951;"/><polygon points="439.55 513.97 168.12 357.26 168.12 349.1 439.55 505.8 439.55 513.97" style="fill:#3b4951;"/><polygon points="383.17 498.73 168.12 374.57 168.12 366.41 383.17 490.56 383.17 498.73" style="fill:#3b4951;"/><path d="M221.05,448.62l-44.67-25.79c-4.56-2.63-8.26-9.7-8.26-15.79h0c0-6.08,3.7-8.88,8.26-6.25l44.67,25.79c4.56,2.63,8.26,9.7,8.26,15.79h0c0,6.08-3.7,8.88-8.26,6.25Z" style="fill:#ed484f;"/><path d="M292.08,489.63l-44.67-25.79c-4.56-2.63-8.26-9.7-8.26-15.79h0c0-6.08,3.7-8.88,8.26-6.25l44.67,25.79c4.56,2.63,8.26,9.7,8.26,15.79h0c0,6.08-3.7,8.88-8.26,6.25Z" style="fill:#fff;"/><g style="opacity:.2;"><polygon points="459.35 305.85 459.35 395.06 280.57 498.27 80.18 382.58 80.18 374.74 329.34 230.79 459.35 305.85" style="fill:#fff;"/></g><polygon points="550.22 436.48 445.36 375.94 440.34 378.84 545.21 439.38 550.22 436.48" style="fill:#69c3fa;"/><polygon points="550.22 505.57 550.22 436.51 545.21 439.4 545.21 508.46 550.22 505.57" style="fill:#3376bf;"/><polygon points="545.21 508.46 440.34 447.92 440.34 378.86 545.21 439.4 545.21 508.46" style="fill:#419ae8;"/><polygon points="473.51 456.43 490.97 441.29 501.79 453.32 515.74 443.33 539.59 494.58 473.51 456.43" style="fill:#f3ae00;"/><polygon points="466.25 409.73 449.42 400.01 449.42 394.74 466.25 404.46 466.25 409.73" style="fill:#fff;"/><polygon points="466.25 423.9 449.42 414.18 449.42 408.91 466.25 418.63 466.25 423.9" style="fill:#fff;"/><polygon points="466.25 438.07 449.42 428.35 449.42 423.08 466.25 432.8 466.25 438.07" style="fill:#fff;"/><polygon points="466.25 452.24 449.42 442.52 449.42 437.26 466.25 446.97 466.25 452.24" style="fill:#fff;"/><polygon points="473.51 456.43 490.85 452.27 504.12 467.01 518.2 459.03 528.22 471.21 539.59 494.58 473.51 456.43" style="fill:#ed484f;"/><polygon points="485.5 653.35 357.92 579.69 351.54 583.38 479.13 657.04 485.5 653.35" style="fill:#5d7280;"/><polygon points="485.5 723.91 485.5 653.33 479.13 657.01 479.13 727.59 485.5 723.91" style="fill:#2c353b;"/><polygon points="479.13 727.59 351.54 653.93 351.54 583.35 479.13 657.01 479.13 727.59" style="fill:#3b4951;"/><polygon points="455.29 668.06 375.38 621.92 375.38 612.71 455.29 658.85 455.29 668.06" style="fill:#fff;"/><path d="M404.65,668.9l-22.26-12.85c-3-1.73-5.43-6.38-5.43-10.38h0c0-4,2.43-5.84,5.43-4.11l22.26,12.85c3,1.73,5.43,6.38,5.43,10.38h0c0,4-2.43,5.84-5.43,4.11Z" style="fill:#419ae8;"/><path d="M448.28,694.08l-22.26-12.85c-3-1.73-5.43-6.38-5.43-10.38h0c0-4,2.43-5.84,5.43-4.11l22.26,12.85c3,1.73,5.43,6.38,5.43,10.38h0c0,4-2.43,5.84-5.43,4.11Z" style="fill:#ed484f;"/><polygon points="308.49 547.19 178.27 472.01 172.79 475.18 303 550.36 308.49 547.19" style="fill:#5d7280;"/><polygon points="308.49 575.88 308.49 547.21 303 550.38 303 579.05 308.49 575.88" style="fill:#2c353b;"/><polygon points="303 579.05 172.78 503.87 172.78 475.2 303 550.38 303 579.05" style="fill:#3b4951;"/><path d="M218.12,515.71c0,2.01-1.41,2.83-3.15,1.82-1.74-1.01-3.15-3.45-3.15-5.46s1.41-2.83,3.15-1.82c1.74,1.01,3.15,3.45,3.15,5.46Z" style="fill:#008b62;"/><path d="M229.58,522.33c0,2.01-1.41,2.83-3.15,1.82-1.74-1.01-3.15-3.45-3.15-5.46s1.41-2.83,3.15-1.82c1.74,1.01,3.15,3.45,3.15,5.46Z" style="fill:#d7daff;"/><path d="M241.04,528.95c0,2.01-1.41,2.83-3.15,1.82-1.74-1.01-3.15-3.45-3.15-5.46s1.41-2.83,3.15-1.82c1.74,1.01,3.15,3.45,3.15,5.46Z" style="fill:#d7daff;"/><path d="M252.51,535.57c0,2.01-1.41,2.83-3.15,1.82-1.74-1.01-3.15-3.45-3.15-5.46s1.41-2.83,3.15-1.82c1.74,1.01,3.15,3.45,3.15,5.46Z" style="fill:#d7daff;"/><path d="M263.97,542.18c0,2.01-1.41,2.83-3.15,1.82-1.74-1.01-3.15-3.45-3.15-5.46s1.41-2.83,3.15-1.82c1.74,1.01,3.15,3.45,3.15,5.46Z" style="fill:#d7daff;"/><polygon points="294.37 559.71 288.27 563.23 286.51 560.19 290.82 557.66 286.51 550.21 288.27 549.19 294.37 559.71" style="fill:#008b62;"/><polygon points="181.41 494.5 187.51 505.06 189.27 504.04 184.97 496.55 189.27 494.06 187.51 491.02 181.41 494.5" style="fill:#008b62;"/><polygon points="511.86 241.53 403.32 178.86 403.32 153 511.86 215.67 511.86 241.53" style="fill:#3b4951;"/><polygon points="444.94 194.77 411.33 175.37 411.33 165.74 444.94 185.15 444.94 194.77" style="fill:#aeb2f4;"/><path d="M501.83,227.62l-12.77-7.37c-1.99-1.15-3.61-4.24-3.61-6.9h0c0-2.66,1.62-3.88,3.61-2.73l12.77,7.37c1.99,1.15,3.61,4.24,3.61,6.9h0c0,2.66-1.62,3.88-3.61,2.73Z" style="fill:#419ae8;"/><path d="M493.06,217.74c0,1.95-1.37,2.75-3.06,1.77-1.69-.98-3.06-3.35-3.06-5.31s1.37-2.75,3.06-1.77c1.69.98,3.06,3.35,3.06,5.31Z" style="fill:#fff;"/><polygon points="516.47 213.03 407.93 150.37 403.32 153.03 511.86 215.69 516.47 213.03" style="fill:#5d7280;"/><polygon points="516.47 238.87 516.47 213.01 511.86 215.67 511.86 241.53 516.47 238.87" style="fill:#2c353b;"/><polygon points="511.86 277.18 403.32 214.52 403.32 188.66 511.86 251.33 511.86 277.18" style="fill:#3b4951;"/><polygon points="444.94 230.43 411.33 211.02 411.33 201.4 444.94 220.8 444.94 230.43" style="fill:#aeb2f4;"/><path d="M501.83,263.27l-12.77-7.37c-1.99-1.15-3.61-4.24-3.61-6.9h0c0-2.66,1.62-3.88,3.61-2.73l12.77,7.37c1.99,1.15,3.61,4.24,3.61,6.89h0c0,2.66-1.62,3.88-3.61,2.73Z" style="fill:#e50000;"/><path d="M493.06,253.4c0,1.95-1.37,2.75-3.06,1.77-1.69-.98-3.06-3.35-3.06-5.31s1.37-2.75,3.06-1.77c1.69.98,3.06,3.35,3.06,5.31Z" style="fill:#fff;"/><polygon points="516.47 248.69 407.93 186.02 403.32 188.68 511.86 251.35 516.47 248.69" style="fill:#5d7280;"/><polygon points="516.47 274.53 516.47 248.67 511.86 251.33 511.86 277.18 516.47 274.53" style="fill:#2c353b;"/><polygon points="541.94 396.94 495.28 370 495.28 316.12 541.94 343.06 541.94 396.94" style="fill:#e50000;"/><polygon points="523.8 359.53 532.42 374.45 527.24 377.44 518.62 362.52 510.01 367.49 504.83 358.52 513.44 353.55 504.83 338.62 510.01 335.63 518.62 350.56 527.24 345.58 532.42 354.55 523.8 359.53" style="fill:#fff;"/><polygon points="547.76 339.71 501.1 312.76 495.28 316.12 541.94 343.06 547.76 339.71" style="fill:#ed484f;"/><polygon points="547.76 393.58 547.76 339.71 541.94 343.06 541.94 396.94 547.76 393.58" style="fill:#b70000;"/><g style="isolation:isolate;"><path d="M25.46,3.46l4.91-2.86c1.61-.94,3.85-.81,6.33.62l-4.91,2.86c-2.48-1.43-4.72-1.56-6.33-.62Z" style="fill:#5d7280;"/><path d="M99.64,66.79l-4.91,2.86c1.6-.93,2.6-2.9,2.6-5.7l4.91-2.86c0,2.8-1,4.77-2.6,5.7Z" style="fill:#5d7280;"/><polygon points="97.37 52.19 102.28 49.33 102.25 61.09 97.33 63.95 97.37 52.19" style="fill:#5d7280;"/><polygon points="31.79 4.08 36.7 1.22 93.41 33.96 88.49 36.82 31.79 4.08" style="fill:#5d7280;"/><path d="M88.49,36.82c4.9,2.83,8.89,9.74,8.87,15.37l-.03,11.76c-.02,5.63-4.04,7.92-8.93,5.09L31.7,36.3c-4.94-2.85-8.89-9.74-8.87-15.37l.03-11.76c.02-5.63,3.99-7.94,8.93-5.09l56.7,32.74Z" style="fill:#3b4951;"/><path d="M88.49,36.82l4.91-2.86c4.9,2.83,8.89,9.74,8.87,15.37l-4.91,2.86c.02-5.63-3.98-12.54-8.87-15.37Z" style="fill:#5d7280;"/></g><path d="M44.18,28.59c0,4.55-3.19,6.39-7.13,4.12-3.94-2.27-7.13-7.8-7.13-12.35s3.19-6.39,7.13-4.12c3.94,2.27,7.13,7.8,7.13,12.35Z" style="fill:#69c3fa;"/><polygon points="65.17 36.43 48.05 26.55 48.05 22.6 65.17 32.48 65.17 36.43" style="fill:#fff;"/><polygon points="77.6 43.61 69.45 38.91 69.45 34.95 77.6 39.66 77.6 43.61" style="fill:#fff;"/><polygon points="90.36 58.28 48.05 33.85 48.05 31.53 90.36 55.96 90.36 58.28" style="fill:#fff;"/><polygon points="74.65 54.42 48.05 39.06 48.05 36.74 74.65 52.1 74.65 54.42" style="fill:#fff;"/><g style="isolation:isolate;"><path d="M25.46,49.9l4.91-2.86c1.61-.94,3.85-.81,6.33.62l-4.91,2.86c-2.48-1.43-4.72-1.56-6.33-.62Z" style="fill:#5d7280;"/><path d="M99.64,113.23l-4.91,2.86c1.6-.93,2.6-2.9,2.6-5.7l4.91-2.86c0,2.8-1,4.77-2.6,5.7Z" style="fill:#5d7280;"/><polygon points="97.37 98.63 102.28 95.77 102.25 107.54 97.33 110.39 97.37 98.63" style="fill:#5d7280;"/><polygon points="31.79 50.52 36.7 47.67 93.41 80.4 88.49 83.26 31.79 50.52" style="fill:#5d7280;"/><path d="M88.49,83.26c4.9,2.83,8.89,9.74,8.87,15.37l-.03,11.76c-.02,5.63-4.04,7.92-8.93,5.09l-56.7-32.74c-4.94-2.85-8.89-9.74-8.87-15.37l.03-11.76c.02-5.63,3.99-7.94,8.93-5.09l56.7,32.74Z" style="fill:#3b4951;"/><path d="M88.49,83.26l4.91-2.86c4.9,2.83,8.89,9.74,8.87,15.37l-4.91,2.86c.02-5.63-3.98-12.54-8.87-15.37Z" style="fill:#5d7280;"/></g><path d="M44.18,75.04c0,4.55-3.19,6.39-7.13,4.12-3.94-2.27-7.13-7.8-7.13-12.35s3.19-6.39,7.13-4.12c3.94,2.27,7.13,7.8,7.13,12.35Z" style="fill:#6159ff;"/><polygon points="65.17 82.88 48.05 72.99 48.05 69.04 65.17 78.93 65.17 82.88" style="fill:#fff;"/><polygon points="77.6 90.05 69.45 85.35 69.45 81.4 77.6 86.1 77.6 90.05" style="fill:#fff;"/><polygon points="90.36 104.72 48.05 80.3 48.05 77.98 90.36 102.4 90.36 104.72" style="fill:#fff;"/><polygon points="74.65 100.86 48.05 85.51 48.05 83.19 74.65 98.54 74.65 100.86" style="fill:#fff;"/><g style="isolation:isolate;"><path d="M25.46,96.34l4.91-2.86c1.61-.94,3.85-.81,6.33.62l-4.91,2.86c-2.48-1.43-4.72-1.56-6.33-.62Z" style="fill:#5d7280;"/><path d="M99.64,159.68l-4.91,2.86c1.6-.93,2.6-2.9,2.6-5.7l4.91-2.86c0,2.8-1,4.77-2.6,5.7Z" style="fill:#5d7280;"/><polygon points="97.37 145.07 102.28 142.22 102.25 153.98 97.33 156.83 97.37 145.07" style="fill:#5d7280;"/><polygon points="31.79 96.96 36.7 94.11 93.41 126.85 88.49 129.7 31.79 96.96" style="fill:#5d7280;"/><path d="M88.49,129.7c4.9,2.83,8.89,9.74,8.87,15.37l-.03,11.76c-.02,5.63-4.04,7.92-8.93,5.09l-56.7-32.74c-4.94-2.85-8.89-9.74-8.87-15.37l.03-11.76c.02-5.63,3.99-7.94,8.93-5.09l56.7,32.74Z" style="fill:#3b4951;"/><path d="M88.49,129.7l4.91-2.86c4.9,2.83,8.89,9.74,8.87,15.37l-4.91,2.86c.02-5.63-3.98-12.54-8.87-15.37Z" style="fill:#5d7280;"/></g><path d="M44.18,121.48c0,4.55-3.19,6.39-7.13,4.12-3.94-2.27-7.13-7.8-7.13-12.35s3.19-6.39,7.13-4.12c3.94,2.27,7.13,7.8,7.13,12.35Z" style="fill:#7dea5d;"/><polygon points="65.17 129.32 48.05 119.44 48.05 115.48 65.17 125.37 65.17 129.32" style="fill:#fff;"/><polygon points="77.6 136.5 69.45 131.79 69.45 127.84 77.6 132.55 77.6 136.5" style="fill:#fff;"/><polygon points="90.36 151.16 48.05 126.74 48.05 124.42 90.36 148.85 90.36 151.16" style="fill:#fff;"/><polygon points="74.65 147.3 48.05 131.95 48.05 129.63 74.65 144.98 74.65 147.3" style="fill:#fff;"/><polygon points="112.4 464.36 14.34 407.75 14.34 376.45 112.4 433.06 112.4 464.36" style="fill:#c9c9c9;"/><polygon points="36.48 414.36 20.06 404.88 20.06 385.93 36.48 395.41 36.48 414.36" style="fill:#e50000;"/><polygon points="60.33 414.42 42.05 403.87 42.05 398.62 60.33 409.18 60.33 414.42" style="fill:#3b4951;"/><polygon points="60.33 428.13 42.05 417.57 42.05 412.33 60.33 422.88 60.33 428.13" style="fill:#419ae8;"/><polygon points="73.87 422.24 64.73 416.96 64.73 411.72 73.87 417 73.87 422.24" style="fill:#3b4951;"/><polygon points="76.08 429.5 42.05 409.85 42.05 407.27 76.08 426.92 76.08 429.5" style="fill:#3b4951;"/><polygon points="94.99 443.46 87.5 439.13 87.5 430.48 94.99 434.81 94.99 443.46" style="fill:#fff;"/><polygon points="106.12 449.88 98.63 445.55 98.63 436.9 106.12 441.23 106.12 449.88" style="fill:#419ae8;"/><polygon points="116.27 430.82 18.22 374.21 14.35 376.45 112.4 433.06 116.27 430.82" style="fill:#dbdbdb;"/><polygon points="116.27 462.13 116.27 430.83 112.4 433.06 112.4 464.36 116.27 462.13" style="fill:#a5a5a5;"/><polygon points="112.4 510.79 14.34 454.18 14.34 422.88 112.4 479.49 112.4 510.79" style="fill:#c9c9c9;"/><polygon points="36.48 460.78 20.06 451.31 20.06 432.36 36.48 441.83 36.48 460.78" style="fill:#419ae8;"/><polygon points="60.33 460.85 42.05 450.29 42.05 445.05 60.33 455.6 60.33 460.85" style="fill:#3b4951;"/><polygon points="60.33 474.55 42.05 464 42.05 458.76 60.33 469.31 60.33 474.55" style="fill:#419ae8;"/><polygon points="73.87 468.67 64.73 463.39 64.73 458.15 73.87 463.43 73.87 468.67" style="fill:#3b4951;"/><polygon points="76.08 475.93 42.05 456.28 42.05 453.7 76.08 473.35 76.08 475.93" style="fill:#3b4951;"/><polygon points="94.99 489.88 87.5 485.56 87.5 476.91 94.99 481.23 94.99 489.88" style="fill:#fff;"/><polygon points="106.12 496.3 98.63 491.98 98.63 483.33 106.12 487.65 106.12 496.3" style="fill:#419ae8;"/><polygon points="116.27 477.25 18.22 420.64 14.35 422.88 112.4 479.49 116.27 477.25" style="fill:#dbdbdb;"/><polygon points="116.27 508.55 116.27 477.25 112.4 479.49 112.4 510.79 116.27 508.55" style="fill:#a5a5a5;"/><polygon points="112.4 557.22 14.34 500.61 14.34 469.31 112.4 525.92 112.4 557.22" style="fill:#c9c9c9;"/><polygon points="36.48 507.21 20.06 497.73 20.06 478.78 36.48 488.26 36.48 507.21" style="fill:#f3ae00;"/><polygon points="60.33 507.27 42.05 496.72 42.05 491.48 60.33 502.03 60.33 507.27" style="fill:#3b4951;"/><polygon points="60.33 520.98 42.05 510.43 42.05 505.18 60.33 515.74 60.33 520.98" style="fill:#419ae8;"/><polygon points="73.87 515.09 64.73 509.82 64.73 504.57 73.87 509.85 73.87 515.09" style="fill:#3b4951;"/><polygon points="76.08 522.36 42.05 502.71 42.05 500.12 76.08 519.77 76.08 522.36" style="fill:#3b4951;"/><polygon points="94.99 536.31 87.5 531.98 87.5 523.33 94.99 527.66 94.99 536.31" style="fill:#fff;"/><polygon points="106.12 542.73 98.63 538.41 98.63 529.75 106.12 534.08 106.12 542.73" style="fill:#419ae8;"/><polygon points="116.27 523.68 18.22 467.07 14.35 469.3 112.4 525.91 116.27 523.68" style="fill:#dbdbdb;"/><polygon points="116.27 554.98 116.27 523.68 112.4 525.92 112.4 557.22 116.27 554.98" style="fill:#a5a5a5;"/><path d="M24.51,168.17c13.34,7.7,24.11,26.36,24.07,41.67l-.3,105.51c-.04,15.32-10.89,21.51-24.23,13.81C10.73,321.47-.04,302.81,0,287.48l.3-105.51c.04-15.31,10.89-21.49,24.21-13.8Z" style="fill:#ffc21a;"/><g style="filter:url(#d);"><path d="M23.54,188.9c2.41,1.39,4.82,3,7.23,4.84,3.12,2.37,5.56,6.6,6.05,10.48.75,5.98.74,11.52-.05,16.61-.5,3.3-2.96,4.7-6.09,3.47-2.41-.95-4.82-2.12-7.23-3.51-2.41-1.39-4.82-3-7.23-4.84-3.12-2.37-5.56-6.6-6.05-10.48-.75-5.98-.74-11.52.05-16.61.5-3.3,2.96-4.7,6.09-3.47,2.41.95,4.82,2.12,7.23,3.51Z" style="fill:#eff4ff;"/></g><g style="filter:url(#f);"><path d="M23.54,233.54c2.41,1.39,4.82,3,7.23,4.84,3.12,2.37,5.56,6.6,6.05,10.48.75,5.98.74,11.52-.05,16.61-.5,3.3-2.96,4.7-6.09,3.47-2.41-.95-4.82-2.12-7.23-3.51-2.41-1.39-4.82-3-7.23-4.84-3.12-2.37-5.56-6.6-6.05-10.48-.75-5.98-.74-11.52.05-16.61.5-3.3,2.96-4.7,6.09-3.47,2.41.95,4.82,2.12,7.23,3.51Z" style="fill:#eff4ff;"/></g><g style="filter:url(#h);"><path d="M23.54,278.17c2.41,1.39,4.82,3,7.23,4.84,3.12,2.37,5.56,6.6,6.05,10.48.75,5.98.74,11.52-.05,16.61-.5,3.3-2.96,4.7-6.09,3.47-2.41-.95-4.82-2.12-7.23-3.51-2.41-1.39-4.82-3-7.23-4.84-3.12-2.37-5.56-6.6-6.05-10.48-.75-5.98-.74-11.52.05-16.61.5-3.3,2.96-4.7,6.09-3.47,2.41.95,4.82,2.12,7.23,3.51Z" style="fill:#eff4ff;"/></g><g style="isolation:isolate;"><path d="M20.34,197.09c.26.15.53.38.78.69l7.67,9.53c1.04,1.29,1.03,3.02,0,3.11l-7.7.66c-.25.02-.52-.06-.78-.21-.82-.47-1.56-1.65-1.56-2.7l.03-10.19c0-1.05.75-1.37,1.57-.9Z" style="fill:#ff63aa;"/></g><path d="M27.25,246.95c1.13.65,2.05,2.24,2.04,3.54l-.02,6.85c0,1.3-.93,1.82-2.06,1.17l-8.4-4.85c-1.13-.65-2.04-2.24-2.04-3.54l.02-6.85c0-1.3.93-1.82,2.05-1.17l.73.42,1.04-1.09c.08-.09.22-.09.36,0l4.15,2.4c.14.08.28.24.36.42l1.03,2.29.72.42ZM23.03,253.72c1.67.96,3.02.19,3.03-1.73,0-1.92-1.34-4.25-3.01-5.21-1.67-.96-3.03-.19-3.03,1.72,0,1.92,1.35,4.26,3.01,5.22" style="fill:#6098f0;"/><path d="M21.4,288.76c.92.53,1.84,1.15,2.76,1.86,1.01.78,1.8,2.15,1.97,3.41.31,2.29.3,4.41-.02,6.34-.18,1.07-.97,1.52-1.98,1.13-.92-.35-1.84-.79-2.76-1.32-.92-.53-1.84-1.15-2.76-1.87-1.01-.79-1.8-2.14-1.97-3.42-.31-2.29-.3-4.41.02-6.34.18-1.07.97-1.52,1.98-1.13.92.35,1.84.79,2.76,1.32Z" style="fill:#6098f0;"/><path d="M29.22,296.04c.45.26.86.91.86,1.49v3.79c-.01.58-.43.76-.88.5-.14-.08-.29-.21-.43-.38l-.98-1.23c-.36-.45-.59-1.03-.59-1.52v-1.85c0-.48.24-.8.6-.84l.99-.08c.14-.01.29.03.43.11Z" style="fill:#6098f0;"/><path d="M338.91,124.73l-27.26-15.74c-3.36-1.94-6.4-2.12-8.6-.84l-3.06,1.78c2.2-1.28,5.24-1.1,8.6.84l27.26,15.74c6.68,3.85,12.07,13.19,12.05,20.87l-.09,31.34c-.01,3.8-1.35,6.48-3.52,7.74l3.06-1.78c2.17-1.26,3.51-3.94,3.52-7.74l.09-31.34c.02-7.67-5.37-17.01-12.05-20.87Z" style="fill:#1ae5ff;"/><path d="M335.85,126.51c6.68,3.85,12.07,13.19,12.05,20.87l-.09,31.34c-.02,7.66-5.45,10.75-12.13,6.9l-27.26-15.74c-6.68-3.85-12.07-13.19-12.05-20.86l.09-31.34c.02-7.67,5.45-10.76,12.13-6.91l27.26,15.74Z" style="fill:url(#j);"/><path d="M334.4,154.02c.64.37,1.16,1.27,1.16,2.01v3.8c-.01.74-.54,1.04-1.18.67l-1.49-.86c-.31,1.34-.84,2.47-1.54,3.35l1.05,1.82c.45.78.45,1.63,0,1.89l-2.35,1.33c-.23.13-.53.09-.82-.08-.3-.17-.59-.47-.82-.87l-1.05-1.82c-1.12.15-2.37.03-3.7-.38v1.72c0,.74-.53,1.03-1.17.66l-3.31-1.91c-.64-.37-1.16-1.27-1.16-2v-1.72c-1.32-1.12-2.56-2.44-3.68-3.89l-1.06.6c-.23.13-.53.09-.82-.08s-.59-.47-.82-.87l-2.34-4.04c-.45-.78-.45-1.63,0-1.89l1.06-.6c-.69-1.69-1.21-3.42-1.51-5.12l-1.49-.86c-.64-.37-1.16-1.27-1.16-2.01v-3.8c.01-.74.54-1.04,1.18-.67l1.49.86c.31-1.34.84-2.47,1.54-3.35l-1.05-1.82c-.45-.79-.45-1.63,0-1.89l2.35-1.33c.23-.13.53-.09.82.08.3.17.59.47.82.87l1.05,1.82c1.13-.16,2.37-.04,3.7.37v-1.71c0-.74.53-1.04,1.17-.67l3.31,1.91c.64.37,1.16,1.27,1.16,2.01v1.71c1.32,1.12,2.56,2.44,3.68,3.89l1.06-.6c.23-.13.53-.09.82.08.3.17.59.47.82.87l2.34,4.04c.45.78.45,1.63,0,1.89l-1.06.6c.69,1.69,1.21,3.42,1.51,5.12l1.49.86ZM320.87,156.24c3.26,1.88,5.91.37,5.92-3.38.01-3.75-2.62-8.31-5.88-10.19s-5.91-.37-5.92,3.38c-.01,3.75,2.62,8.31,5.88,10.2" style="fill:#eff4ff;"/><polygon points="244.19 58.2 182.65 22.67 180.25 24.05 241.8 59.59 244.19 58.2" style="fill:#69c3fa;"/><polygon points="244.19 129.26 244.19 58.19 241.8 59.58 241.8 130.64 244.19 129.26" style="fill:#3376bf;"/><polygon points="241.8 130.64 180.25 95.11 180.25 24.05 241.8 59.58 241.8 130.64" style="fill:#419ae8;"/><polygon points="228.97 62.93 193.07 42.2 193.07 38.38 228.97 59.11 228.97 62.93" style="fill:#fff;"/><polygon points="228.97 69.01 193.07 48.28 193.07 44.46 228.97 65.18 228.97 69.01" style="fill:#fff;"/><polygon points="221.76 70.92 200.29 58.52 200.29 54.7 221.76 67.1 221.76 70.92" style="fill:#fff;"/><polygon points="223.93 104.66 198.12 89.76 198.12 86.03 223.93 100.94 223.93 104.66" style="fill:#fff;"/><path d="M208.9,78.32c0,2.9-2.04,4.08-4.55,2.63-2.51-1.45-4.55-4.98-4.55-7.88s2.04-4.08,4.55-2.63c2.51,1.45,4.55,4.98,4.55,7.88Z" style="fill:#f6d13a;"/><polygon points="206.93 78.98 220.29 86.69 220.29 83.1 206.93 75.39 206.93 78.98" style="fill:#f6d13a;"/><polygon points="217.09 82.1 215 80.89 215 76.59 217.09 77.8 217.09 82.1" style="fill:#f6d13a;"/><polygon points="220.29 83.94 218.19 82.73 218.19 78.43 220.29 79.64 220.29 83.94" style="fill:#f6d13a;"/><polygon points="551.44 637.4 433.19 569.12 433.19 524.16 551.44 592.44 551.44 637.4" style="fill:#c9c9c9;"/><path d="M468.51,567.04c0,8.9-6.25,12.51-13.96,8.06-7.71-4.45-13.96-15.27-13.96-24.17s6.25-12.51,13.96-8.06c7.71,4.45,13.96,15.27,13.96,24.17Z" style="fill:#d7daff;"/><path d="M464.48,564.71c0,6.33-4.44,8.89-9.92,5.73-5.48-3.16-9.93-10.86-9.93-17.19s4.44-8.89,9.93-5.73c5.48,3.16,9.92,10.86,9.92,17.19Z" style="fill:#e50000;"/><polygon points="501.45 578.1 474.04 562.28 474.04 554.12 501.45 569.94 501.45 578.1" style="fill:#3b4951;"/><polygon points="518.79 588.12 506.51 581.03 506.51 572.86 518.79 579.95 518.79 588.12" style="fill:#3b4951;"/><polygon points="544.39 616.04 474.04 575.42 474.04 570.23 544.39 610.85 544.39 616.04" style="fill:#3b4951;"/><polygon points="518.79 610.65 474.04 584.82 474.04 579.62 518.79 605.46 518.79 610.65" style="fill:#3b4951;"/><polygon points="557.37 588.98 439.12 520.7 433.19 524.12 551.45 592.4 557.37 588.98" style="fill:#dbdbdb;"/><polygon points="557.37 633.97 557.37 589.02 551.44 592.44 551.44 637.4 557.37 633.97" style="fill:#a5a5a5;"/></g></svg>