<?xml version="1.0" encoding="UTF-8"?><svg id="b" xmlns="http://www.w3.org/2000/svg" viewBox="0 0 1530.73 616.58"><g id="c"><path d="M744.13,91.4c18.12,11.98,32.49,37.31,32.81,58.63.37,23.16-16.04,32.45-35.98,20.94l-91.35-52.75c-24.52-14.15-44.08-48.54-42.87-76.06,1.01-23.66,17.37-33.78,38-24.46,9.02-14.35,26.8-17.5,47.31-5.67,25.83,14.92,47.34,48.55,52.09,79.36ZM721.66,109.17c2.07-1.18.64-6.12-2.37-7.86l-13.23-7.64.08-28.82c0-2.09-1.49-4.69-3.31-5.74l-21.76-12.56c-1.82-1.05-3.33-.19-3.33,1.9l-.08,28.75-13.29-7.6c-2.95-1.7-4.4,1.57-2.34,5.14l27.37,47.41c.66,1.14,1.5,2,2.35,2.49s1.7.6,2.35.22l27.55-15.7" style="fill:#cfe0ff;"/><path d="M1032.71,482.76c7.38,4.26,14.75,11.75,20.35,21.47,11.22,19.49,11.16,40.41-.13,46.91l-43.6,21.68-43.28-71.84c-11.22-19.49-11.16-40.41.13-46.91,5.64-3.22,13.03-2.19,20.41,2.07,7.38,4.26,14.75,11.75,20.35,21.47l2.64,4.63,2.71-1.55c5.65-3.22,13.03-2.19,20.41,2.07Z" style="fill:red;"/><path d="M800.22,281.52c21.18,12.23,42.34,33.72,58.42,61.56,3.09,5.36,3.08,11.15-.04,12.92-1.56.89-3.59.6-5.63-.57-2.04-1.18-4.07-3.24-5.61-5.92-12.99-22.48-30.08-39.84-47.19-49.72-17.11-9.88-34.23-12.27-47.29-4.83-1.56.89-3.59.6-5.63-.57-2.04-1.17-4.07-3.24-5.61-5.92-3.09-5.36-3.08-11.15.04-12.92,16.17-9.22,37.37-6.25,58.55,5.98Z" style="fill:#6098f0;"/><path d="M800.42,349.96c4.02,2.32,8.03,6.39,11.07,11.65,6.11,10.59,6.08,22-.07,25.51-3.06,1.74-7.08,1.18-11.1-1.14-4.02-2.32-8.03-6.39-11.07-11.65-6.11-10.59-6.08-22,.07-25.51,3.06-1.74,7.08-1.17,11.1,1.14Z" style="fill:#6098f0;"/><path d="M800.13,318.11c13.02,7.52,26.03,20.73,35.91,37.85,3.09,5.36,3.08,11.15-.04,12.92-1.56.89-3.59.6-5.63-.57-2.04-1.17-4.07-3.24-5.61-5.92-6.79-11.75-15.73-20.84-24.68-26-8.95-5.17-17.92-6.43-24.75-2.53-1.56.89-3.59.6-5.63-.57-2.04-1.18-4.07-3.24-5.61-5.92-3.09-5.36-3.08-11.15.04-12.92,9.94-5.67,22.98-3.84,36.01,3.68Z" style="fill:#6098f0;"/><path d="M757.54,498.88c1.92,1.11,3.84,3.37,4.82,6.24l10.14,29.65c.77,2.28,2.29,4.42,4.04,5.73l22.8,16.98c4.42,3.29,6.16,10.55,2.96,12.28l-16.56,8.96c-1.27.68-1.86,2.4-1.57,4.58l3.83,28.36c.58,4.34-2.19,6-5.33,4.19-.83-.48-1.68-1.2-2.51-2.18l-20.37-24.11c-.78-.93-1.65-1.66-2.51-2.16s-1.72-.76-2.51-.74l-20.44.54c-.83.02-1.68-.24-2.51-.72-3.14-1.81-5.89-6.66-5.28-10.31l3.98-23.86c.31-1.83-.27-4.22-1.54-6.37l-16.46-28.03c-3.18-5.42-1.4-10.64,3.02-8.83l22.82,9.36c1.76.72,3.28.33,4.06-1.05l10.27-17.87c1-1.73,2.92-1.77,4.84-.66Z" style="fill:#f4bf47;"/><path d="M643.12,436.15c1.92,1.11,3.84,3.37,4.82,6.24l10.14,29.65c.78,2.28,2.3,4.43,4.05,5.73l22.8,16.98c4.42,3.29,6.16,10.55,2.96,12.28l-16.56,8.96c-1.27.68-1.86,2.4-1.57,4.58l3.83,28.36c.58,4.34-2.19,6-5.33,4.19-.83-.48-1.68-1.2-2.51-2.18l-20.37-24.11c-.78-.93-1.65-1.66-2.51-2.16s-1.72-.76-2.51-.74l-20.44.54c-.83.02-1.68-.24-2.51-.72-3.14-1.81-5.89-6.66-5.28-10.31l3.98-23.86c.31-1.83-.27-4.22-1.54-6.37l-16.46-28.03c-3.18-5.42-1.4-10.64,3.02-8.83l22.82,9.36c1.76.72,3.28.33,4.06-1.05l10.27-17.87c1-1.73,2.92-1.77,4.84-.66Z" style="fill:#f4bf47;"/><path d="M528.99,373.41c1.92,1.11,3.84,3.37,4.82,6.24l10.14,29.64c.78,2.28,2.3,4.43,4.05,5.73l22.8,16.98c4.42,3.29,6.16,10.55,2.95,12.28l-16.56,8.97c-1.27.68-1.86,2.4-1.57,4.58l3.82,28.36c.59,4.35-2.19,6-5.33,4.19-.83-.48-1.68-1.2-2.51-2.18l-20.37-24.11c-.78-.92-1.64-1.66-2.5-2.16s-1.72-.76-2.51-.74l-20.44.54c-.83.02-1.68-.24-2.51-.72-3.14-1.81-5.89-6.66-5.28-10.31l3.98-23.86c.3-1.83-.27-4.22-1.54-6.37l-16.46-28.03c-3.19-5.43-1.4-10.64,3.02-8.83l22.82,9.36c1.76.72,3.27.32,4.06-1.05l10.27-17.86c1-1.73,2.92-1.77,4.84-.67Z" style="fill:#f4bf47;"/><path d="M447.87,112.38c30.02,17.33,54.28,59.35,54.18,93.85-.1,34.5-24.52,48.41-54.54,31.08-30.03-17.34-54.28-59.35-54.18-93.85.1-34.5,24.51-48.41,54.54-31.08ZM461.7,185.93c1.44-.83,1.45-3.51.02-5.99l-17.21-29.8c-.72-1.24-1.66-2.2-2.6-2.75s-1.89-.67-2.61-.26c-1.44.82-1.45,3.5-.02,5.99l14.61,25.3-14.71,8.37c-1.44.83-1.45,3.51-.02,5.99.72,1.25,1.66,2.2,2.6,2.74s1.89.68,2.61.26l17.32-9.86" style="fill:#6d3bd1;"/><path d="M441.91,147.4c.94.54,1.88,1.5,2.6,2.75l17.21,29.8c1.43,2.48,1.42,5.16-.02,5.99l-17.32,9.86c-.72.42-1.66.28-2.61-.26s-1.88-1.5-2.6-2.74c-1.43-2.48-1.42-5.16.02-5.99l14.71-8.37-14.61-25.3c-1.43-2.49-1.42-5.17.02-5.99.72-.41,1.67-.28,2.61.26Z" style="fill:#efeffc;"/><g style="isolation:isolate;"><path d="M323.12,78.82c.94.55,1.89,1.5,2.6,2.74,1.44,2.48,1.43,5.16-.02,5.99l-14.7,8.38,14.61,25.3c1.44,2.49,1.43,5.17-.02,5.99-.72.41-1.66.28-2.61-.26s-1.88-1.5-2.6-2.74l-17.2-29.79c-1.43-2.49-1.42-5.17.02-5.99l17.31-9.87c.72-.41,1.67-.28,2.61.26Z" style="fill:#efeffc;"/><path d="M317.39,37.04c30.02,17.33,54.28,59.35,54.18,93.85-.1,34.5-24.52,48.41-54.54,31.08-30.02-17.33-54.28-59.35-54.18-93.85.1-34.5,24.52-48.41,54.54-31.08ZM325.61,121.22l-14.61-25.3,14.7-8.38c1.45-.82,1.46-3.5.02-5.99-.71-1.24-1.66-2.2-2.6-2.74s-1.88-.68-2.61-.26l-17.31,9.87c-1.44.82-1.45,3.5-.02,5.99l17.2,29.79c.72,1.24,1.66,2.2,2.6,2.74s1.89.68,2.61.26c1.45-.82,1.46-3.5.02-5.99" style="fill:#6d3bd1;"/></g><path d="M1084.85,68.66c7.16,4.13,12.94,14.15,12.91,22.37l-.23,80.2c-.02,8.22-5.84,11.54-13,7.41l-6.65-3.84-.05,17.62c-.01,4.12-2.96,5.23-6.07,3.43-1.31-.76-2.65-2.03-3.8-3.81l-23.97-36.82-75.29-43.47c-7.16-4.13-12.94-14.14-12.91-22.37l.23-80.2c.02-8.22,5.84-11.55,13-7.41l115.84,66.88ZM1026.74,99.32c4.75,2.74,8.62.54,8.63-4.91.02-5.47-3.83-12.12-8.58-14.86s-8.62-.55-8.63,4.92,3.83,12.11,8.58,14.85M993.66,80.22c4.75,2.74,8.62.55,8.63-4.91.02-5.47-3.83-12.12-8.58-14.86-4.76-2.75-8.62-.55-8.63,4.92s3.82,12.11,8.58,14.85M1059.82,118.41c4.76,2.75,8.62.54,8.63-4.91s-3.82-12.11-8.58-14.86-8.62-.55-8.63,4.92,3.83,12.11,8.58,14.85" style="fill:#50b267;"/><path d="M319.39,531.19c1.55,1.94,2.76,4.13,3.65,6.56.89,2.44,1.34,4.94,1.33,7.53s-.46,4.53-1.37,5.94c-.9,1.42-2.13,2.2-3.7,2.34-1.57.14-3.32-.35-5.28-1.48s-3.7-2.66-5.26-4.6c-1.56-1.95-2.78-4.14-3.68-6.6-.89-2.45-1.33-4.95-1.32-7.49s.46-4.57,1.36-5.98c.91-1.39,2.13-2.17,3.68-2.33,1.55-.15,3.32.35,5.29,1.49s3.74,2.68,5.29,4.62Z" style="fill:#ededf4;"/><path d="M168.27,439c2.62,1.51,4.76,3.5,6.43,5.97,1.66,2.47,2.6,5.01,2.81,7.62l-4.01-2.31c-.13-1.3-.69-2.71-1.67-4.21-.99-1.51-2.29-2.74-3.93-3.68-1.52-.88-2.77-1.14-3.73-.78-.97.35-1.45,1.34-1.45,2.96,0,1.17.27,2.28.85,3.36.57,1.06,1.28,2.04,2.11,2.9.84.87,2.02,1.99,3.55,3.36,1.84,1.65,3.32,3.08,4.45,4.29,1.12,1.22,2.08,2.65,2.88,4.29.79,1.64,1.19,3.48,1.19,5.51,0,1.56-.37,2.83-1.1,3.8-.72.97-1.79,1.47-3.21,1.51-1.42.04-3.09-.49-5.01-1.6s-3.5-2.4-4.95-3.99c-1.45-1.6-2.59-3.3-3.41-5.11-.83-1.81-1.25-3.6-1.27-5.37l3.89,2.24c.12,1.58.66,3.16,1.61,4.74.94,1.57,2.33,2.89,4.15,3.94s3.1,1.29,4.11.87c1.01-.42,1.51-1.41,1.51-2.98,0-1.23-.29-2.39-.87-3.5-.59-1.11-1.32-2.11-2.2-3.03-.88-.9-2.07-2.02-3.57-3.34-1.84-1.62-3.32-3.02-4.42-4.21-1.11-1.2-2.06-2.61-2.84-4.25s-1.17-3.46-1.17-5.45c0-1.75.39-3.08,1.18-3.98.78-.9,1.87-1.32,3.27-1.25,1.41.08,3.02.64,4.84,1.69Z" style="fill:#ededf4;"/><polygon points="293.64 511.43 293.55 543.58 289.89 541.47 275.3 507.44 275.23 533.01 271.58 530.9 271.67 498.75 275.32 500.86 289.91 534.84 289.99 509.32 293.64 511.43" style="fill:#655fff;"/><path d="M326.28,537.89c1.22,3.19,1.82,6.37,1.81,9.54s-.63,5.63-1.86,7.41c-1.24,1.78-2.92,2.74-5.07,2.91-2.14.16-4.53-.52-7.14-2.03s-4.95-3.56-7.09-6.19c-2.14-2.64-3.81-5.55-5.05-8.77-1.23-3.22-1.85-6.4-1.84-9.53s.64-5.59,1.89-7.38c1.25-1.78,2.94-2.76,5.09-2.93,2.14-.16,4.51.51,7.1,2s5,3.58,7.13,6.21c2.14,2.64,3.81,5.55,5.03,8.75ZM323.01,551.22c.91-1.41,1.36-3.4,1.37-5.94s-.43-5.09-1.33-7.53c-.89-2.43-2.1-4.62-3.65-6.56-1.55-1.94-3.31-3.48-5.29-4.62s-3.74-1.64-5.29-1.49c-1.55.15-2.78.93-3.68,2.33-.9,1.41-1.35,3.39-1.36,5.98s.43,5.05,1.32,7.49c.89,2.46,2.12,4.65,3.68,6.6,1.56,1.94,3.32,3.48,5.26,4.6s3.71,1.62,5.28,1.48c1.57-.14,2.8-.92,3.7-2.34" style="fill:#655fff;"/><g style="isolation:isolate;"><polygon points="132.04 418.49 122.88 433.23 122.85 445.34 119.2 443.24 119.23 431.13 110.15 405.86 114.2 408.2 121.05 428.43 127.99 416.15 132.04 418.49" style="fill:#ededf4;"/><polygon points="152.52 430.27 152.51 433.73 141.12 427.16 141.09 437.88 151.28 443.76 151.27 447.22 141.08 441.34 141.05 452.39 152.44 458.97 152.43 462.42 137.4 453.74 137.49 421.6 152.52 430.27" style="fill:#ededf4;"/><path d="M336.22,497.58c26.08,15.06,47.16,51.57,47.08,81.55s-21.31,42.06-47.39,27l-223.67-129.14c-26.08-15.06-47.16-51.57-47.08-81.55s21.31-42.06,47.39-27.01l223.67,129.14ZM186.03,509.06c21.03,12.14,38.13,2.4,38.2-21.77.07-24.16-16.92-53.59-37.95-65.73l-73.76-42.59c-21.02-12.14-38.13-2.39-38.2,21.77-.07,24.17,16.92,53.6,37.95,65.74l73.76,42.59M326.23,554.84c1.23-1.78,1.85-4.25,1.86-7.41s-.6-6.34-1.81-9.54c-1.23-3.2-2.9-6.11-5.03-8.75-2.13-2.63-4.51-4.7-7.13-6.21s-4.96-2.16-7.1-2c-2.14.17-3.83,1.14-5.09,2.93-1.25,1.79-1.88,4.24-1.89,7.37s.61,6.3,1.84,9.53c1.24,3.22,2.92,6.14,5.05,8.77,2.13,2.63,4.5,4.69,7.09,6.19s5,2.19,7.14,2.03c2.14-.17,3.83-1.13,5.07-2.91M293.55,543.58l.09-32.15-3.65-2.11-.07,25.52-14.59-33.98-3.65-2.11-.09,32.15,3.65,2.11.07-25.57,14.59,34.03,3.65,2.11" style="fill:#ededf4;"/><path d="M186.28,421.56c21.03,12.14,38.02,41.57,37.95,65.73s-17.17,33.91-38.2,21.77l-73.76-42.59c-21.02-12.14-38.02-41.57-37.95-65.74.07-24.16,17.17-33.91,38.2-21.77l73.76,42.59ZM122.88,433.23l9.15-14.74-4.05-2.34-6.94,12.28-6.84-20.24-4.05-2.34,9.08,25.27-.03,12.11,3.65,2.1.03-12.11M176.64,472.07c.73-.97,1.09-2.23,1.1-3.8,0-2.02-.39-3.86-1.19-5.51-.8-1.65-1.76-3.08-2.88-4.29-1.12-1.21-2.6-2.65-4.45-4.29-1.52-1.37-2.7-2.49-3.55-3.36-.84-.86-1.55-1.84-2.11-2.9-.58-1.08-.86-2.19-.85-3.36,0-1.62.49-2.61,1.45-2.96.96-.36,2.21-.09,3.73.78,1.63.94,2.94,2.17,3.93,3.68.98,1.51,1.54,2.91,1.67,4.21l4.01,2.31c-.2-2.61-1.14-5.15-2.81-7.62-1.67-2.47-3.81-4.46-6.43-5.97-1.82-1.05-3.43-1.61-4.84-1.69-1.4-.07-2.5.35-3.27,1.25-.78.9-1.17,2.23-1.18,3.98,0,2,.39,3.82,1.17,5.45.78,1.63,1.73,3.05,2.84,4.25,1.1,1.19,2.58,2.59,4.42,4.21,1.5,1.32,2.69,2.44,3.57,3.34.88.91,1.61,1.92,2.2,3.03.59,1.11.88,2.28.87,3.5,0,1.57-.51,2.56-1.51,2.98-1.01.42-2.37.13-4.11-.87s-3.2-2.36-4.15-3.94c-.95-1.58-1.49-3.16-1.61-4.74l-3.89-2.24c.02,1.77.44,3.56,1.27,5.37.82,1.81,1.96,3.51,3.41,5.11,1.45,1.59,3.11,2.92,4.95,3.99s3.59,1.64,5.01,1.6c1.42-.04,2.5-.54,3.21-1.51M152.51,433.73v-3.46s-15.02-8.68-15.02-8.68l-.09,32.15,15.03,8.68v-3.46s-11.37-6.57-11.37-6.57l.03-11.06,10.18,5.88v-3.46s-10.17-5.88-10.17-5.88l.03-10.73,11.38,6.57" style="fill:#655fff;"/></g><path d="M1279.64,452.58c0,2.58.04,5.55.19,7.63l-4.13-2.38-.2-5.18-.1-.06c-1.43,2.43-4.52,3.12-8.65.73-6.12-3.53-10.81-12.2-10.79-21.04-.02-9.71,5.22-12.64,11.4-9.07,3.87,2.23,6.48,5.85,7.62,8.85l.1.06.05-17.37,4.6,2.66-.1,35.16ZM1275.05,445.23v-5.05c.02-.66-.03-1.59-.19-2.34-.67-3.76-3.17-7.97-6.62-9.96-4.76-2.75-7.6.43-7.62,6.86-.02,5.88,2.48,12.2,7.45,15.08,3.08,1.78,5.91,1.07,6.76-2.42.16-.63.21-1.32.22-2.16" style="fill:#efeffc;"/><path d="M1268.23,427.87c3.45,1.99,5.96,6.2,6.62,9.96.16.75.21,1.68.2,2.34v5.05c-.02.84-.07,1.53-.23,2.16-.85,3.49-3.68,4.2-6.76,2.42-4.97-2.87-7.47-9.19-7.45-15.08.02-6.43,2.85-9.61,7.62-6.86Z" style="fill:#6d3bd1;"/><path d="M1241.3,411.96c5.18,2.99,6.41,8.94,6.35,12.28l-13.44-7.76c.37-3.46,2.43-7.21,7.09-4.52Z" style="fill:#6d3bd1;"/><path d="M1173.98,373.09c5.18,2.99,6.41,8.94,6.35,12.28l-13.44-7.76c.37-3.46,2.43-7.21,7.09-4.52Z" style="fill:#6d3bd1;"/><path d="M1135.42,350.83c5.18,2.99,6.42,8.95,6.36,12.28l-13.45-7.76c.38-3.45,2.43-7.21,7.09-4.52Z" style="fill:#6d3bd1;"/><path d="M1110.2,321.04c3.61,2.09,6.22,4.56,7.79,6.48l-1.27,3.54c-1.15-1.39-3.5-3.95-6.69-5.79-4.81-2.78-6.66-.53-6.66,2.24-.01,3.79,2.13,6.89,6.99,11.86,5.96,6.08,8.98,11.14,8.96,17.09-.02,6.25-4.06,9.34-12.37,4.54-3.4-1.96-7.11-5.25-8.99-7.79l1.17-3.72c2.03,2.62,5.01,5.55,8.15,7.36,4.65,2.69,7.38,1.43,7.39-2.66.01-3.79-1.87-7.04-6.62-11.89-5.75-5.67-9.29-11.15-9.28-16.86.02-6.31,4.58-8.37,11.43-4.41Z" style="fill:#efeffc;"/><path d="M1146.22,367c0,1.09-.11,1.86-.16,2.38l-17.79-10.27c.09,7.22,4.05,12.45,8.65,15.11,3.29,1.9,5.29,2.39,7.01,2.55l.77,4.24c-1.62-.1-4.4-.73-8.43-3.06-7.8-4.5-12.43-13.08-12.41-21.85s4.55-13.09,11.92-8.84c8.26,4.77,10.43,14.39,10.42,19.74ZM1128.33,355.35l13.45,7.76c.06-3.34-1.18-9.29-6.36-12.28-4.65-2.69-6.7,1.07-7.09,4.52" style="fill:#efeffc;"/><polygon points="1156.6 346.32 1156.48 389 1151.88 386.34 1152 343.67 1156.6 346.32" style="fill:#efeffc;"/><path d="M1184.77,389.26c0,1.09-.11,1.86-.16,2.38l-17.79-10.27c.09,7.22,4.05,12.45,8.65,15.11,3.3,1.91,5.29,2.39,7.01,2.55l.77,4.24c-1.62-.1-4.4-.73-8.43-3.06-7.8-4.5-12.43-13.08-12.41-21.85.02-8.78,4.55-13.09,11.92-8.84,8.26,4.77,10.43,14.39,10.42,19.74ZM1166.89,377.61l13.44,7.76c.06-3.34-1.18-9.29-6.35-12.28-4.66-2.69-6.71,1.06-7.09,4.52" style="fill:#efeffc;"/><path d="M1202.29,385.7c2.72,1.57,5.12,3.75,6.37,5.19l-1.05,3.49c-1.1-1.35-2.82-3.01-5.33-4.46-5.8-3.35-8.96-.23-8.98,5.83-.02,6.73,3.74,13.05,8.75,15.95,2.62,1.51,4.34,1.73,5.65,1.82l.77,4.42c-1.2.03-3.87-.55-7.28-2.51-7.64-4.41-12.59-13.23-12.56-22.13.03-8.96,5.37-12.37,13.64-7.6Z" style="fill:#efeffc;"/><path d="M1220.2,388.28l-.02,8.35,6.59,3.8v4.03s-6.6-3.8-6.6-3.8l-.04,15.69c-.01,3.6.87,6.16,3.43,7.64,1.21.7,2.09,1.03,2.67,1.18l.2,4.08c-.89-.09-2.3-.6-4.08-1.63-2.15-1.24-3.87-3.02-4.96-5.1-1.3-2.32-1.77-5.17-1.76-8.6l.04-15.87-3.92-2.26v-4.03s3.93,2.26,3.93,2.26l.02-6.97,4.5,1.22Z" style="fill:#efeffc;"/><path d="M1252.1,428.13c0,1.09-.11,1.86-.17,2.37l-17.79-10.27c.09,7.22,4.05,12.45,8.65,15.11,3.3,1.91,5.29,2.39,7.01,2.55l.77,4.24c-1.62-.1-4.4-.73-8.43-3.06-7.8-4.5-12.43-13.08-12.41-21.85s4.55-13.09,11.92-8.84c8.27,4.77,10.44,14.4,10.43,19.75ZM1234.21,416.48l13.44,7.76c.06-3.34-1.18-9.29-6.35-12.28-4.66-2.69-6.71,1.06-7.09,4.52" style="fill:#efeffc;"/><path d="M1413.95,499.3c.64.37,1.29,1.03,1.78,1.88.98,1.7.97,3.53-.01,4.09l-22.98,13.09c-.49.28-1.14.2-1.78-.18s-1.29-1.03-1.78-1.88l-11.29-19.55c-.98-1.7-.97-3.53.01-4.1.49-.28,1.14-.19,1.78.18s1.29,1.03,1.78,1.88l9.51,16.48,21.18-12.07c.5-.28,1.14-.19,1.79.18Z" style="fill:#6d3bd1;"/><path d="M1396.89,469.53c17.28,9.97,31.23,34.15,31.18,53.99-.06,19.85-14.1,27.86-31.38,17.88-17.27-9.97-31.23-34.14-31.17-54,.06-19.85,14.1-27.85,31.37-17.88ZM1415.72,505.27c.99-.56.99-2.4.01-4.09-.49-.85-1.14-1.51-1.78-1.88s-1.29-.46-1.79-.18l-21.18,12.07-9.51-16.48c-.49-.85-1.13-1.5-1.78-1.88s-1.29-.46-1.78-.18c-.99.57-.99,2.4-.01,4.1l11.29,19.55c.49.85,1.13,1.51,1.78,1.88s1.29.46,1.78.18l22.98-13.09" style="fill:#efeffc;"/><path d="M1396.97,443.08c29.98,17.31,54.21,59.27,54.11,93.73-.1,34.45-24.48,48.35-54.47,31.04l-280.29-161.82c-29.98-17.31-54.21-59.27-54.11-93.73.1-34.45,24.48-48.35,54.47-31.04l280.29,161.82ZM1396.69,541.4c17.28,9.97,31.32,1.97,31.38-17.88.06-19.85-13.9-44.02-31.18-53.99s-31.32-1.97-31.37,17.88c-.06,19.85,13.9,44.02,31.17,54M1275.69,457.83l4.13,2.38c-.15-2.08-.2-5.05-.19-7.63l.1-35.16-4.6-2.66-.05,17.37-.1-.06c-1.14-3-3.75-6.62-7.62-8.85-6.17-3.56-11.42-.63-11.4,9.07-.03,8.84,4.66,17.51,10.79,21.04,4.13,2.39,7.22,1.7,8.65-.73l.1.06.2,5.18M1106.95,361c8.31,4.8,12.36,1.71,12.37-4.54.02-5.95-3.01-11.01-8.96-17.09-4.86-4.97-7-8.08-6.99-11.86,0-2.77,1.85-5.02,6.66-2.24,3.19,1.84,5.54,4.4,6.69,5.79l1.27-3.54c-1.57-1.93-4.18-4.4-7.79-6.48-6.85-3.96-11.42-1.9-11.43,4.41-.02,5.71,3.53,11.19,9.28,16.86,4.76,4.85,6.63,8.1,6.62,11.89-.01,4.09-2.74,5.35-7.39,2.66-3.14-1.81-6.12-4.74-8.15-7.36l-1.17,3.72c1.89,2.54,5.59,5.82,9,7.79M1251.93,430.5c.05-.51.16-1.29.17-2.37.02-5.35-2.16-14.97-10.43-19.75-7.37-4.26-11.9.05-11.92,8.84s4.61,17.35,12.41,21.85c4.03,2.33,6.8,2.96,8.43,3.06l-.77-4.24c-1.73-.16-3.71-.65-7.01-2.55-4.6-2.66-8.57-7.89-8.65-15.11l17.79,10.27M1184.61,391.63c.05-.51.16-1.29.16-2.38.02-5.35-2.16-14.97-10.42-19.74-7.37-4.26-11.89.05-11.92,8.84-.02,8.77,4.61,17.35,12.41,21.85,4.03,2.33,6.8,2.96,8.43,3.06l-.77-4.24c-1.73-.16-3.71-.64-7.01-2.55-4.6-2.66-8.57-7.89-8.65-15.11l17.79,10.27M1146.06,369.37c.05-.51.16-1.29.16-2.38.02-5.35-2.16-14.97-10.42-19.74-7.37-4.26-11.89.05-11.92,8.84s4.61,17.35,12.41,21.85c4.03,2.33,6.8,2.96,8.43,3.06l-.77-4.24c-1.73-.16-3.72-.65-7.01-2.55-4.6-2.66-8.57-7.89-8.65-15.11l17.79,10.27M1202.05,411.69c-5.02-2.9-8.77-9.22-8.75-15.95.02-6.07,3.17-9.18,8.98-5.83,2.51,1.45,4.24,3.11,5.33,4.46l1.05-3.49c-1.25-1.44-3.65-3.62-6.37-5.19-8.27-4.77-13.62-1.36-13.64,7.6s4.93,17.72,12.56,22.13c3.4,1.96,6.07,2.54,7.28,2.51l-.77-4.42c-1.31-.09-3.04-.31-5.65-1.82M1226.75,404.46v-4.03s-6.58-3.8-6.58-3.8l.02-8.35-4.51-1.22-.02,6.97-3.92-2.26v4.03s3.91,2.26,3.91,2.26l-.04,15.87c0,3.43.46,6.28,1.76,8.6,1.09,2.08,2.82,3.86,4.96,5.1,1.78,1.03,3.19,1.54,4.08,1.63l-.2-4.08c-.58-.16-1.46-.48-2.67-1.18-2.56-1.48-3.44-4.04-3.43-7.64l.04-15.69,6.59,3.8M1156.48,389l.12-42.68-4.6-2.66-.12,42.68,4.6,2.66" style="fill:#6d3bd1;"/></g></svg>